<?xml version="1.0" encoding="utf-8"?>
<!-- Generator: Adobe Illustrator 26.0.2, SVG Export Plug-In . SVG Version: 6.00 Build 0)  -->
<svg version="1.1" id="Layer_1" xmlns="http://www.w3.org/2000/svg" xmlns:xlink="http://www.w3.org/1999/xlink" x="0px" y="0px"
	 viewBox="0 0 1404.6 534.6" style="enable-background:new 0 0 1404.6 534.6;" xml:space="preserve">
<style type="text/css">
	.st0{fill:#FFFFFF;}
	.st1{fill:#C9A13B;}
</style>
<path class="st0" d="M75.5,81.5c6.2-4.9,14.4-5.2,17-5.2v-7H0v6.3c7,0.7,12.2,1.5,17.7,5.5c8.6,5.9,11.1,15.1,11.6,35.5v168.5
	c-1.9,18.8-4.5,27.4-13,32.2c-5.6,3-14.8,4.4-16.2,4.8v6.2h91.8v-6.2c-5.6-0.8-10.3-1.1-14.8-4.1c-13-8.8-13-27-13-41.1V115.9
	C65.5,97,67.4,87,75.5,81.5z"/>
<path class="st0" d="M406.9,309.5c-6.6-9.3-6.6-18.8-7.7-30c-3.4-33.3-4.9-66.7-7.4-99.6c-0.8-11.9-1.5-23.4-2.6-35.2
	c-1.1-12.2-2.3-24.5-2.3-37.4c0-14.1,3-23.7,16.3-29.3c3.4-1.3,6.8-2.4,10.3-3.3v-5.9h-56.3l-84.1,204.4c-10-25.9-20-51.8-30.8-77.4
	c-17.4-42.6-36.2-85.2-55.2-127.4h-57.7v7.7c17,3,23.7,6.3,25.5,15.5c1.1,5.2,0.8,10.8,0.8,15.9l-2.6,32.6v1.8l-7.8,123.3
	c-2.5,28.1-4.8,42.6-17.7,50.7c-4.4,3-7.4,4.1-17.5,6.2v5.6h78.5v-5.9c-1.5-0.3-9.6-1.1-14.8-4.1c-2.9-1.5-5.4-3.7-7.5-6.2
	c-7.4-9.6-7-23-7-26.3c0-11.5,1.1-22.6,1.9-33.7l9.2-141.8c6.7,17.4,13.7,35.2,20.8,53c10.3,25.5,21.5,51.1,32.2,76.6
	c13.3,31.1,26.3,62.6,39.2,93.7L354,110l3.3,34.8l3.3,42.9c1.9,20.8,3.4,41.2,4.9,61.5c0.3,8.2,0.7,15.5,1.5,23.7
	c0,4.8,0.3,9.6,0.3,14.8c0,17.5-6.2,26-12.6,29.7c-2.6,1.8-7.4,3.3-15.2,4.8l-0.3,7H431v-7C420.6,320.3,413.2,318.4,406.9,309.5z"/>
<path class="st0" d="M629.1,97.4c-22.2-25.9-54.8-27-65.2-27.8c-5.5-0.3-11.5-0.7-17.4-0.7h-97.3v5.9c10.3,1.5,14.1,3,18.5,6.7
	c8.2,7.4,10,17,10.3,38.1v145.9c-0.3,19.2-0.7,33.3-4.1,41.1c-1.2,2.7-2.8,5.2-4.8,7.4c-5.6,6.3-11.8,7.4-20.3,8.5v5.9h91.8v-5.9
	c-7.4-0.7-13.7-1.8-19.6-7.4c-8.5-7.8-9.6-20-9.6-43v-65.5c4.1,0.7,22.6,4.1,39.2,4.1c23.4,0,53.3-6,71.1-21.1
	c20.3-16.7,22.9-41.5,23.3-50.4C645.1,123.8,639.4,108.9,629.1,97.4z M603.6,162.5c-2.3,6.3-5.2,11.9-10,16.7
	c-17.1,18.9-45.9,20.1-52.3,20.1c-12.6,0-27.3-3.7-30.3-4.1v-116h21.1c19.3,1.1,37,2.6,52.2,14.8c7.4,5.6,22.2,22.2,22.2,48.9
	C606.5,149.6,605.5,156.2,603.6,162.5L603.6,162.5z"/>
<path class="st0" d="M879.7,314.3c-8.5-7.7-12.2-18.5-15.9-29.6c-3.7-11.5-7.7-22.9-11.5-34.4l-21.9-65.9l-22.9-68.9
	c3,20-3.8,40.7-14.6,61.4c3.8,10.9,10.9,35.3,14.9,46.5l0,0l9.4,27.2l9.6,30c2.2,6.7,5.1,15.2,5.1,23.4c0.1,2.4-0.3,4.7-1,7
	c-0.8,2.7-2.6,5.1-4.9,6.7c-7,5.1-16.2,4.8-18.5,4.8v6.7h94.1v-5.9C889,321,884.6,318.8,879.7,314.3z"/>
<path class="st1" d="M793,176.9c-1.7,3.4-83.2,125.6-57.3,151.7c0,0.1-0.1,0.2-0.2,0.2c-34-31.5-23.6-64.7,1.1-106.3
	c2.5-4.2,5.3-8.3,8.2-12.6c13.4-20,28.1-40.3,39.1-59.9c10.8-19.5,17.9-38.4,16-55.8c0-0.1,0.1-0.2,0.2-0.1c0.4,0.8,0.9,1.7,1.3,2.4
	v0.1c3.1,5.8,5.2,12.1,6.2,18.6c0,0.1,0,0.2,0.1,0.3C810.6,135.5,803.7,156.3,793,176.9z"/>
<path class="st0" d="M1150.4,263.6c-5.1,8.2-9.2,15.2-16.2,22.6c-24.5,25.6-55.6,28.6-68.2,28.6c-17.9,0.1-35.5-4.9-50.7-14.5
	c-34.4-21.5-48.1-61.8-48.1-101c0-10.4,0.8-20.8,2.3-31.2c3.7-22.6,10.7-44,25.5-62.2c24.1-28.8,54.8-31.8,68.4-31.8
	c22.6-0.2,44.4,8.1,61.1,23.3c7,7,16.7,18.5,22.2,41.1c0.7,4.1,1.5,7.8,2.2,11.5h8.5l-3.3-78.9h-5.6c-4.1,4.1-7.4,7.5-12.9,7.5
	c-4.9,0-11.5-3-12.6-3.4c-5.2-1.8-10.4-3.3-16-4.8c-24.4-7-38.5-8.2-51.1-8.2c-79.6,0-110.7,55.9-120.7,82.2
	c-9.6,25.5-10.3,48.8-10.3,59.2c0,52.9,28.1,100,76.6,119.9c16.6,6.8,34.4,10.3,52.3,10.3c13.3,0,53.2-1.8,81.8-31.1
	c11.8-11.8,22.9-30,25.2-33.3L1150.4,263.6z"/>
<path class="st0" d="M1397.9,60.4c-11.5,7-14.1,7.7-28.1,8.2h-159.5c-12.9-0.4-16.7-1.1-27-7.8l-8.5-0.3v58.9h8.2
	c1-9.6,2.2-17.5,8.9-24.8c9.6-10.8,23.7-11.5,38.8-11.8h41.9v188.8c-0.4,22.2-1.1,35.5-8.2,42.9c-7.4,8.2-17.4,7-21.4,7v7.5h93.4
	v-6.3c-6.7-1.1-22.7-2.6-27.4-21.8c-1.1-4.9-1.5-9-1.8-19.6V82.6h43.7c15.2,0.3,30,1,39.2,12.2c6.2,7.5,7,14.8,7.7,24.5l7,0.3V60.4
	H1397.9z"/>
<path class="st1" d="M784.7,63.7c-8.3,21.7-22.9,44.5-38.4,67.3c-29.9,44.2-62.8,88.1-58.5,123c0,0.1-0.1,0.1-0.2,0
	C639.8,174.6,796.4,61,784,0.1c-0.1-0.1,0.1-0.2,0.1-0.1C795.4,19.1,793.5,40.8,784.7,63.7z"/>
<path class="st1" d="M801.9,81.3L801.9,81.3c-1.3,17.5-8,35.1-17.2,52.5c-13.6,25.7-32.7,51.2-48.5,76.1
	c-17.6,27.8-31,54.6-27.4,79.8v0.1c0.6,4.8,1.9,9.4,3.7,13.9c0.1,0.1-0.1,0.2-0.1,0.1c-1.8-2-3.4-4.2-5-6.4v-0.1
	c-5.3-7.6-8.9-16.2-10.3-25.4v-0.1c-5.2-32.1,13.6-68.6,36.4-103.7v-0.1c10-15.5,20.8-30.8,30.5-45.2c0,0,0.1-0.1,0.1-0.2
	c4.2-6,8-11.9,11.6-17.5c9.6-15.2,17-29.3,20.1-41.4c1.4-5.2,1.7-10.7,1-16c0-0.2,0.2-0.2,0.2-0.1C801.2,58.3,802.9,69.8,801.9,81.3
	z"/>
<path class="st0" d="M823.7,534.6c-9.5,0.1-19-1.7-27.8-5.3c-16.8-6.6-30.1-19.8-36.9-36.5c-8.3-20.2-6.9-43.1,3.7-62.2
	c6-10.4,14.7-19,25.2-24.8c10.9-6.1,23.3-9.2,35.8-9c17.5,0,32.4,4.5,44.9,13.5c0.7,0.6,1,1.5,0.9,2.4c0,2.4-1,6-2.9,10.6
	c-2.8,6.6-5.3,9.9-7.5,9.9c-0.4,0-0.7-0.1-1.1-0.3c-9.8-7.3-21.8-11.2-34.1-11c-15.4-0.1-29.6,8-37.3,21.4c-7.9,13.9-7.9,31,0,44.9
	c7.7,13.3,21.9,21.5,37.3,21.4c12.2,0,24.1-3.8,34.1-10.8c0.3-0.3,0.7-0.4,1.1-0.4c2.2,0,4.7,3.1,7.5,9.4c2,4.5,3,8.1,3,10.7
	c0.1,1-0.2,2-1,2.7C856,530.1,841.1,534.6,823.7,534.6z"/>
<path class="st0" d="M1034.4,530.4c0,0.7-0.4,1.3-1,1.7c-1,0.4-2.1,0.7-3.1,0.8c-1.3,0.2-2.5,0.3-3.8,0.3h-4.8
	c-9.2,0-14.4-0.8-15-2.3l-9.4-23c0,0-0.2,0-0.2-0.2l-0.7-1.5L968.8,441l-0.3,0.7l-1.2,2.5l-18,41.6l-9.1,20.5l-0.2,0.5
	c0,0.2-0.2,0.2-0.2,0.2l-9.9,23.9c-0.7,1.5-5.8,2.3-15.2,2.3h-4.6c-1.3,0-2.5-0.1-3.8-0.3c-1.1-0.1-2.1-0.4-3.1-0.8
	c-0.6-0.3-1-1-1-1.7c0-0.4,0.1-0.7,0.3-1l33-70.7l1.2-2.7l18-41.6l0.8-1.8l-19.5-41.8c-0.2-0.4-0.3-0.8-0.3-1.2c0-0.6,0.4-1.2,1-1.5
	c0.9-0.6,2-1,3.1-1c1.3,0,2.6-0.2,3.8-0.2c1,0,2.6-0.2,4.6-0.2c9.4,0,14.5,0.8,15.2,2.5l3.8,9.2l1.5,3.5l1.5-3.5l3.8-9.2
	c0.7-1.7,5.8-2.5,15.2-2.5c2,0,3.6,0.2,4.6,0.2c1.2,0,2.5,0.2,3.8,0.2c1.1,0,2.2,0.4,3.1,1c0.6,0.3,1,0.8,1,1.5
	c0,0.4-0.1,0.8-0.3,1.2l-19.5,41.8l0.8,1.8l19.2,44.3l11.9,27.4l20.1,43.3C1034.2,529.7,1034.4,530,1034.4,530.4z"/>
<path class="st0" d="M1085.9,533.1c-2.2,0-4,0-5.1,0c-1.3,0-2.6-0.2-3.9-0.4c-1.1-0.1-2.2-0.5-3.1-1.1c-0.6-0.5-0.8-1.3-0.6-2
	l28.5-131.4c0.1-0.6,0.4-1,0.9-1.3c0.4-0.3,0.9-0.5,1.4-0.5c0.4,0,1,0,1.9,0c2.5,0,4,0.4,4.6,1.3l48.4,93.5l48.5-93.5
	c0.5-0.9,2-1.3,4.4-1.3s3.9,0.6,4.3,1.9l28.4,131.4c0.2,0.7,0,1.5-0.5,2c-0.9,0.7-2,1-3.1,1.1c-1.3,0.2-2.7,0.3-4,0.4
	c-1.1,0-2.8,0-5.1,0s-4,0-5.1,0c-1.1,0-2.5-0.1-4.1-0.3c-1.2-0.1-2.4-0.4-3.6-0.8c-0.7-0.3-1.2-0.8-1.4-1.6l-15.5-80.4l-39.5,81.2
	c-0.5,1-1.8,1.4-3.9,1.4c-2.1,0-3.4-0.5-3.9-1.4l-39.5-81.2l-15.4,80.4c-0.3,1.2-1.7,2-4,2.3
	C1092.7,533.1,1089.3,533.2,1085.9,533.1z"/>
<path class="st0" d="M1319.9,533.2c-2.1,0-3.7,0-4.8,0s-2.3-0.1-3.7-0.3c-1.1-0.1-2.2-0.4-3.1-0.9c-0.6-0.4-1-1-1-1.7V400.7
	c0-0.6,0.2-1.1,0.6-1.5c0.4-0.4,0.9-0.6,1.4-0.6h55.4c10.6-0.2,20.7,4.1,28.1,11.6c7.8,7.8,11.7,17.7,11.7,29.8s-3.9,21.9-11.7,29.7
	c-7.4,7.6-17.5,11.8-28.1,11.7h-32.4v48.8c0,0.7-0.4,1.4-1,1.7c-0.9,0.6-2,0.9-3.1,1c-1.2,0.2-2.5,0.3-3.7,0.3
	C1323.6,533.2,1322,533.2,1319.9,533.2z M1361.2,457.5c4.6,0.1,8.9-1.8,12.1-5.1c6.7-6.8,6.7-17.7,0-24.5c-3.1-3.3-7.5-5.1-12.1-5.1
	h-28.7v34.6L1361.2,457.5z"/>
</svg>
